<svg width="24" height="24" viewBox="0 0 24 24" fill="none" xmlns="http://www.w3.org/2000/svg">
<path d="M23.1429 -2.92708e-05H17.0143C15.6991 -2.92708e-05 14.4134 0.48161 13.3071 1.39024L12 2.45941L10.6929 1.39024C9.58771 0.481785 8.30056 -0.000925891 6.98571 -2.92708e-05H0.857143C0.383036 -2.92708e-05 0 0.488442 0 1.09305V20.4953C0 21.0999 0.383036 21.5884 0.857143 21.5884H6.98571C8.30089 21.5884 9.58661 22.07 10.6929 22.9786L11.8821 23.9556C11.917 23.9829 11.9571 24 11.9973 24C12.0375 24 12.0777 23.9863 12.1125 23.9556L13.3018 22.9786C14.4107 22.07 15.6991 21.5884 17.0143 21.5884H23.1429C23.617 21.5884 24 21.0999 24 20.4953V1.09305C24 0.488442 23.617 -2.92708e-05 23.1429 -2.92708e-05ZM6.98571 19.1289H1.92857V2.45941H6.98571C7.93393 2.45941 8.85536 2.80441 9.65089 3.45685L10.958 4.52602L11.1429 4.67973V20.4611C9.86786 19.5866 8.44286 19.1289 6.98571 19.1289ZM22.0714 19.1289H17.0143C15.5571 19.1289 14.1321 19.5866 12.8571 20.4611V4.67973L13.042 4.52602L14.3491 3.45685C15.1446 2.80441 16.0661 2.45941 17.0143 2.45941H22.0714V19.1289ZM8.91696 6.83174H3.94018C3.83571 6.83174 3.75 6.94788 3.75 7.08793V8.62508C3.75 8.76513 3.83571 8.88127 3.94018 8.88127H8.91429C9.01875 8.88127 9.10446 8.76513 9.10446 8.62508V7.08793C9.10714 6.94788 9.02143 6.83174 8.91696 6.83174ZM14.8929 7.08793V8.62508C14.8929 8.76513 14.9786 8.88127 15.083 8.88127H20.0571C20.1616 8.88127 20.2473 8.76513 20.2473 8.62508V7.08793C20.2473 6.94788 20.1616 6.83174 20.0571 6.83174H15.083C14.9786 6.83174 14.8929 6.94788 14.8929 7.08793ZM8.91696 11.614H3.94018C3.83571 11.614 3.75 11.7301 3.75 11.8702V13.4073C3.75 13.5474 3.83571 13.6635 3.94018 13.6635H8.91429C9.01875 13.6635 9.10446 13.5474 9.10446 13.4073V11.8702C9.10714 11.7301 9.02143 11.614 8.91696 11.614ZM20.0598 11.614H15.083C14.9786 11.614 14.8929 11.7301 14.8929 11.8702V13.4073C14.8929 13.5474 14.9786 13.6635 15.083 13.6635H20.0571C20.1616 13.6635 20.2473 13.5474 20.2473 13.4073V11.8702C20.25 11.7301 20.1643 11.614 20.0598 11.614Z" fill="#F8F8F8"/>
</svg>
