<svg width="24" height="25" viewBox="0 0 24 25" fill="none" xmlns="http://www.w3.org/2000/svg">
<path d="M7.71429 4.36605V1.79309C7.71429 1.56577 7.80459 1.34777 7.96534 1.18704C8.12608 1.0263 8.3441 0.936005 8.57143 0.936005H15.4286C15.6559 0.936005 15.8739 1.0263 16.0347 1.18704C16.1954 1.34777 16.2857 1.56577 16.2857 1.79309V4.36605H23.1429C23.3702 4.36605 23.5882 4.45634 23.7489 4.61708C23.9097 4.77781 24 4.99581 24 5.22313C24 5.45044 23.9097 5.66844 23.7489 5.82917C23.5882 5.98991 23.3702 6.08021 23.1429 6.08021H0.857143C0.629814 6.08021 0.411797 5.98991 0.251051 5.82917C0.0903058 5.66844 0 5.45044 0 5.22313C0 4.99581 0.0903058 4.77781 0.251051 4.61708C0.411797 4.45634 0.629814 4.36605 0.857143 4.36605H7.71429ZM9.42857 4.36605H14.5714V2.65188H9.42857V4.36605ZM3.42857 24.936C3.20124 24.936 2.98323 24.8457 2.82248 24.685C2.66173 24.5242 2.57143 24.3062 2.57143 24.0789V6.08021H21.4286V24.0789C21.4286 24.3062 21.3383 24.5242 21.1775 24.685C21.0168 24.8457 20.7988 24.936 20.5714 24.936H3.42857ZM9.42857 19.7935C9.6559 19.7935 9.87392 19.7032 10.0347 19.5425C10.1954 19.3817 10.2857 19.1637 10.2857 18.9364V10.3656C10.2857 10.1383 10.1954 9.9203 10.0347 9.75957C9.87392 9.59883 9.6559 9.50853 9.42857 9.50853C9.20124 9.50853 8.98323 9.59883 8.82248 9.75957C8.66173 9.9203 8.57143 10.1383 8.57143 10.3656V18.9364C8.57143 19.1637 8.66173 19.3817 8.82248 19.5425C8.98323 19.7032 9.20124 19.7935 9.42857 19.7935ZM14.5714 19.7935C14.7988 19.7935 15.0168 19.7032 15.1775 19.5425C15.3383 19.3817 15.4286 19.1637 15.4286 18.9364V10.3656C15.4286 10.1383 15.3383 9.9203 15.1775 9.75957C15.0168 9.59883 14.7988 9.50853 14.5714 9.50853C14.3441 9.50853 14.1261 9.59883 13.9653 9.75957C13.8046 9.9203 13.7143 10.1383 13.7143 10.3656V18.9364C13.7143 19.1637 13.8046 19.3817 13.9653 19.5425C14.1261 19.7032 14.3441 19.7935 14.5714 19.7935Z" fill="#F8F8F8"/>
</svg>
