<svg width="26" height="30" viewBox="0 0 26 30" fill="none" xmlns="http://www.w3.org/2000/svg">
<g filter="url(#filter0_d_10_594)">
<path d="M9 14C8.71667 14 8.479 13.904 8.287 13.712C8.09567 13.5207 8 13.2833 8 13C8 12.7167 8.09567 12.479 8.287 12.287C8.479 12.0957 8.71667 12 9 12C9.28333 12 9.521 12.0957 9.713 12.287C9.90433 12.479 10 12.7167 10 13C10 13.2833 9.90433 13.5207 9.713 13.712C9.521 13.904 9.28333 14 9 14ZM13 14C12.7167 14 12.4793 13.904 12.288 13.712C12.096 13.5207 12 13.2833 12 13C12 12.7167 12.096 12.479 12.288 12.287C12.4793 12.0957 12.7167 12 13 12C13.2833 12 13.521 12.0957 13.713 12.287C13.9043 12.479 14 12.7167 14 13C14 13.2833 13.9043 13.5207 13.713 13.712C13.521 13.904 13.2833 14 13 14ZM17 14C16.7167 14 16.4793 13.904 16.288 13.712C16.096 13.5207 16 13.2833 16 13C16 12.7167 16.096 12.479 16.288 12.287C16.4793 12.0957 16.7167 12 17 12C17.2833 12 17.5207 12.0957 17.712 12.287C17.904 12.479 18 12.7167 18 13C18 13.2833 17.904 13.5207 17.712 13.712C17.5207 13.904 17.2833 14 17 14ZM4 4H7V2H9V4H17V2H19V4H22V22H4V4ZM6 20H20V10H6V20Z" fill="white"/>
</g>
<defs>
<filter id="filter0_d_10_594" x="-3" y="0" width="32" height="32" filterUnits="userSpaceOnUse" color-interpolation-filters="sRGB">
<feFlood flood-opacity="0" result="BackgroundImageFix"/>
<feColorMatrix in="SourceAlpha" type="matrix" values="0 0 0 0 0 0 0 0 0 0 0 0 0 0 0 0 0 0 127 0" result="hardAlpha"/>
<feOffset dy="4"/>
<feGaussianBlur stdDeviation="2"/>
<feComposite in2="hardAlpha" operator="out"/>
<feColorMatrix type="matrix" values="0 0 0 0 0 0 0 0 0 0 0 0 0 0 0 0 0 0 0.25 0"/>
<feBlend mode="normal" in2="BackgroundImageFix" result="effect1_dropShadow_10_594"/>
<feBlend mode="normal" in="SourceGraphic" in2="effect1_dropShadow_10_594" result="shape"/>
</filter>
</defs>
</svg>
